<?xml version="1.0" encoding="utf-8" standalone="no"?>
<!DOCTYPE svg PUBLIC "-//W3C//DTD SVG 1.1//EN"
  "http://www.w3.org/Graphics/SVG/1.1/DTD/svg11.dtd">
<!-- Created with matplotlib (https://matplotlib.org/) -->
<svg height="432pt" version="1.1" viewBox="0 0 720 432" width="720pt" xmlns="http://www.w3.org/2000/svg" xmlns:xlink="http://www.w3.org/1999/xlink">
 <metadata>
  <rdf:RDF xmlns:cc="http://creativecommons.org/ns#" xmlns:dc="http://purl.org/dc/elements/1.1/" xmlns:rdf="http://www.w3.org/1999/02/22-rdf-syntax-ns#">
   <cc:Work>
    <dc:type rdf:resource="http://purl.org/dc/dcmitype/StillImage"/>
    <dc:date>2022-04-14T10:00:38.120313</dc:date>
    <dc:format>image/svg+xml</dc:format>
    <dc:creator>
     <cc:Agent>
      <dc:title>Matplotlib v3.3.1, https://matplotlib.org/</dc:title>
     </cc:Agent>
    </dc:creator>
   </cc:Work>
  </rdf:RDF>
 </metadata>
 <defs>
  <style type="text/css">*{stroke-linecap:butt;stroke-linejoin:round;}</style>
 </defs>
 <g id="figure_1">
  <g id="patch_1">
   <path d="M 0 432 
L 720 432 
L 720 0 
L 0 0 
z
" style="fill:#ffffff;"/>
  </g>
  <g id="axes_1">
   <g id="patch_2">
    <path d="M 90 378 
L 648 378 
L 648 51.84 
L 90 51.84 
z
" style="fill:#ffffff;"/>
   </g>
   <g id="matplotlib.axis_1">
    <g id="xtick_1">
     <g id="line2d_1">
      <path clip-path="url(#p321bab1866)" d="M 105.881294 378 
L 105.881294 51.84 
" style="fill:none;stroke:#cccccc;stroke-linecap:round;stroke-width:0.8;"/>
     </g>
     <g id="text_1">
      <!-- 4.0 -->
      <g style="fill:#262626;" transform="translate(99.765294 392.598875)scale(0.088 -0.088)">
       <defs>
        <path d="M 32.328125 0 
L 32.328125 17.140625 
L 1.265625 17.140625 
L 1.265625 25.203125 
L 33.9375 71.578125 
L 41.109375 71.578125 
L 41.109375 25.203125 
L 50.78125 25.203125 
L 50.78125 17.140625 
L 41.109375 17.140625 
L 41.109375 0 
z
M 32.328125 25.203125 
L 32.328125 57.46875 
L 9.90625 25.203125 
z
" id="ArialMT-52"/>
        <path d="M 9.078125 0 
L 9.078125 10.015625 
L 19.09375 10.015625 
L 19.09375 0 
z
" id="ArialMT-46"/>
        <path d="M 4.15625 35.296875 
Q 4.15625 48 6.765625 55.734375 
Q 9.375 63.484375 14.515625 67.671875 
Q 19.671875 71.875 27.484375 71.875 
Q 33.25 71.875 37.59375 69.546875 
Q 41.9375 67.234375 44.765625 62.859375 
Q 47.609375 58.5 49.21875 52.21875 
Q 50.828125 45.953125 50.828125 35.296875 
Q 50.828125 22.703125 48.234375 14.96875 
Q 45.65625 7.234375 40.5 3 
Q 35.359375 -1.21875 27.484375 -1.21875 
Q 17.140625 -1.21875 11.234375 6.203125 
Q 4.15625 15.140625 4.15625 35.296875 
z
M 13.1875 35.296875 
Q 13.1875 17.671875 17.3125 11.828125 
Q 21.4375 6 27.484375 6 
Q 33.546875 6 37.671875 11.859375 
Q 41.796875 17.71875 41.796875 35.296875 
Q 41.796875 52.984375 37.671875 58.78125 
Q 33.546875 64.59375 27.390625 64.59375 
Q 21.34375 64.59375 17.71875 59.46875 
Q 13.1875 52.9375 13.1875 35.296875 
z
" id="ArialMT-48"/>
       </defs>
       <use xlink:href="#ArialMT-52"/>
       <use x="55.615234" xlink:href="#ArialMT-46"/>
       <use x="83.398438" xlink:href="#ArialMT-48"/>
      </g>
     </g>
    </g>
    <g id="xtick_2">
     <g id="line2d_2">
      <path clip-path="url(#p321bab1866)" d="M 213.288722 378 
L 213.288722 51.84 
" style="fill:none;stroke:#cccccc;stroke-linecap:round;stroke-width:0.8;"/>
     </g>
     <g id="text_2">
      <!-- 4.2 -->
      <g style="fill:#262626;" transform="translate(207.172722 392.598875)scale(0.088 -0.088)">
       <defs>
        <path d="M 50.34375 8.453125 
L 50.34375 0 
L 3.03125 0 
Q 2.9375 3.171875 4.046875 6.109375 
Q 5.859375 10.9375 9.828125 15.625 
Q 13.8125 20.3125 21.34375 26.46875 
Q 33.015625 36.03125 37.109375 41.625 
Q 41.21875 47.21875 41.21875 52.203125 
Q 41.21875 57.421875 37.46875 61 
Q 33.734375 64.59375 27.734375 64.59375 
Q 21.390625 64.59375 17.578125 60.78125 
Q 13.765625 56.984375 13.71875 50.25 
L 4.6875 51.171875 
Q 5.609375 61.28125 11.65625 66.578125 
Q 17.71875 71.875 27.9375 71.875 
Q 38.234375 71.875 44.234375 66.15625 
Q 50.25 60.453125 50.25 52 
Q 50.25 47.703125 48.484375 43.546875 
Q 46.734375 39.40625 42.65625 34.8125 
Q 38.578125 30.21875 29.109375 22.21875 
Q 21.1875 15.578125 18.9375 13.203125 
Q 16.703125 10.84375 15.234375 8.453125 
z
" id="ArialMT-50"/>
       </defs>
       <use xlink:href="#ArialMT-52"/>
       <use x="55.615234" xlink:href="#ArialMT-46"/>
       <use x="83.398438" xlink:href="#ArialMT-50"/>
      </g>
     </g>
    </g>
    <g id="xtick_3">
     <g id="line2d_3">
      <path clip-path="url(#p321bab1866)" d="M 320.69615 378 
L 320.69615 51.84 
" style="fill:none;stroke:#cccccc;stroke-linecap:round;stroke-width:0.8;"/>
     </g>
     <g id="text_3">
      <!-- 4.4 -->
      <g style="fill:#262626;" transform="translate(314.58015 392.598875)scale(0.088 -0.088)">
       <use xlink:href="#ArialMT-52"/>
       <use x="55.615234" xlink:href="#ArialMT-46"/>
       <use x="83.398438" xlink:href="#ArialMT-52"/>
      </g>
     </g>
    </g>
    <g id="xtick_4">
     <g id="line2d_4">
      <path clip-path="url(#p321bab1866)" d="M 428.103578 378 
L 428.103578 51.84 
" style="fill:none;stroke:#cccccc;stroke-linecap:round;stroke-width:0.8;"/>
     </g>
     <g id="text_4">
      <!-- 4.6 -->
      <g style="fill:#262626;" transform="translate(421.987578 392.598875)scale(0.088 -0.088)">
       <defs>
        <path d="M 49.75 54.046875 
L 41.015625 53.375 
Q 39.84375 58.546875 37.703125 60.890625 
Q 34.125 64.65625 28.90625 64.65625 
Q 24.703125 64.65625 21.53125 62.3125 
Q 17.390625 59.28125 14.984375 53.46875 
Q 12.59375 47.65625 12.5 36.921875 
Q 15.671875 41.75 20.265625 44.09375 
Q 24.859375 46.4375 29.890625 46.4375 
Q 38.671875 46.4375 44.84375 39.96875 
Q 51.03125 33.5 51.03125 23.25 
Q 51.03125 16.5 48.125 10.71875 
Q 45.21875 4.9375 40.140625 1.859375 
Q 35.0625 -1.21875 28.609375 -1.21875 
Q 17.625 -1.21875 10.6875 6.859375 
Q 3.765625 14.9375 3.765625 33.5 
Q 3.765625 54.25 11.421875 63.671875 
Q 18.109375 71.875 29.4375 71.875 
Q 37.890625 71.875 43.28125 67.140625 
Q 48.6875 62.40625 49.75 54.046875 
z
M 13.875 23.1875 
Q 13.875 18.65625 15.796875 14.5 
Q 17.71875 10.359375 21.1875 8.171875 
Q 24.65625 6 28.46875 6 
Q 34.03125 6 38.03125 10.484375 
Q 42.046875 14.984375 42.046875 22.703125 
Q 42.046875 30.125 38.078125 34.390625 
Q 34.125 38.671875 28.125 38.671875 
Q 22.171875 38.671875 18.015625 34.390625 
Q 13.875 30.125 13.875 23.1875 
z
" id="ArialMT-54"/>
       </defs>
       <use xlink:href="#ArialMT-52"/>
       <use x="55.615234" xlink:href="#ArialMT-46"/>
       <use x="83.398438" xlink:href="#ArialMT-54"/>
      </g>
     </g>
    </g>
    <g id="xtick_5">
     <g id="line2d_5">
      <path clip-path="url(#p321bab1866)" d="M 535.511005 378 
L 535.511005 51.84 
" style="fill:none;stroke:#cccccc;stroke-linecap:round;stroke-width:0.8;"/>
     </g>
     <g id="text_5">
      <!-- 4.8 -->
      <g style="fill:#262626;" transform="translate(529.395005 392.598875)scale(0.088 -0.088)">
       <defs>
        <path d="M 17.671875 38.8125 
Q 12.203125 40.828125 9.5625 44.53125 
Q 6.9375 48.25 6.9375 53.421875 
Q 6.9375 61.234375 12.546875 66.546875 
Q 18.171875 71.875 27.484375 71.875 
Q 36.859375 71.875 42.578125 66.421875 
Q 48.296875 60.984375 48.296875 53.171875 
Q 48.296875 48.1875 45.671875 44.5 
Q 43.0625 40.828125 37.75 38.8125 
Q 44.34375 36.671875 47.78125 31.875 
Q 51.21875 27.09375 51.21875 20.453125 
Q 51.21875 11.28125 44.71875 5.03125 
Q 38.234375 -1.21875 27.640625 -1.21875 
Q 17.046875 -1.21875 10.546875 5.046875 
Q 4.046875 11.328125 4.046875 20.703125 
Q 4.046875 27.6875 7.59375 32.390625 
Q 11.140625 37.109375 17.671875 38.8125 
z
M 15.921875 53.71875 
Q 15.921875 48.640625 19.1875 45.40625 
Q 22.46875 42.1875 27.6875 42.1875 
Q 32.765625 42.1875 36.015625 45.375 
Q 39.265625 48.578125 39.265625 53.21875 
Q 39.265625 58.0625 35.90625 61.359375 
Q 32.5625 64.65625 27.59375 64.65625 
Q 22.5625 64.65625 19.234375 61.421875 
Q 15.921875 58.203125 15.921875 53.71875 
z
M 13.09375 20.65625 
Q 13.09375 16.890625 14.875 13.375 
Q 16.65625 9.859375 20.171875 7.921875 
Q 23.6875 6 27.734375 6 
Q 34.03125 6 38.125 10.046875 
Q 42.234375 14.109375 42.234375 20.359375 
Q 42.234375 26.703125 38.015625 30.859375 
Q 33.796875 35.015625 27.4375 35.015625 
Q 21.234375 35.015625 17.15625 30.90625 
Q 13.09375 26.8125 13.09375 20.65625 
z
" id="ArialMT-56"/>
       </defs>
       <use xlink:href="#ArialMT-52"/>
       <use x="55.615234" xlink:href="#ArialMT-46"/>
       <use x="83.398438" xlink:href="#ArialMT-56"/>
      </g>
     </g>
    </g>
    <g id="xtick_6">
     <g id="line2d_6">
      <path clip-path="url(#p321bab1866)" d="M 642.918433 378 
L 642.918433 51.84 
" style="fill:none;stroke:#cccccc;stroke-linecap:round;stroke-width:0.8;"/>
     </g>
     <g id="text_6">
      <!-- 5.0 -->
      <g style="fill:#262626;" transform="translate(636.802433 392.598875)scale(0.088 -0.088)">
       <defs>
        <path d="M 4.15625 18.75 
L 13.375 19.53125 
Q 14.40625 12.796875 18.140625 9.390625 
Q 21.875 6 27.15625 6 
Q 33.5 6 37.890625 10.78125 
Q 42.28125 15.578125 42.28125 23.484375 
Q 42.28125 31 38.0625 35.34375 
Q 33.84375 39.703125 27 39.703125 
Q 22.75 39.703125 19.328125 37.765625 
Q 15.921875 35.84375 13.96875 32.765625 
L 5.71875 33.84375 
L 12.640625 70.609375 
L 48.25 70.609375 
L 48.25 62.203125 
L 19.671875 62.203125 
L 15.828125 42.96875 
Q 22.265625 47.46875 29.34375 47.46875 
Q 38.71875 47.46875 45.15625 40.96875 
Q 51.609375 34.46875 51.609375 24.265625 
Q 51.609375 14.546875 45.953125 7.46875 
Q 39.0625 -1.21875 27.15625 -1.21875 
Q 17.390625 -1.21875 11.203125 4.25 
Q 5.03125 9.71875 4.15625 18.75 
z
" id="ArialMT-53"/>
       </defs>
       <use xlink:href="#ArialMT-53"/>
       <use x="55.615234" xlink:href="#ArialMT-46"/>
       <use x="83.398438" xlink:href="#ArialMT-48"/>
      </g>
     </g>
    </g>
    <g id="text_7">
     <!-- t [ps] -->
     <g style="fill:#262626;" transform="translate(358.59675 405.219375)scale(0.096 -0.096)">
      <defs>
       <path d="M 25.78125 7.859375 
L 27.046875 0.09375 
Q 23.34375 -0.6875 20.40625 -0.6875 
Q 15.625 -0.6875 12.984375 0.828125 
Q 10.359375 2.34375 9.28125 4.8125 
Q 8.203125 7.28125 8.203125 15.1875 
L 8.203125 45.015625 
L 1.765625 45.015625 
L 1.765625 51.859375 
L 8.203125 51.859375 
L 8.203125 64.703125 
L 16.9375 69.96875 
L 16.9375 51.859375 
L 25.78125 51.859375 
L 25.78125 45.015625 
L 16.9375 45.015625 
L 16.9375 14.703125 
Q 16.9375 10.9375 17.40625 9.859375 
Q 17.875 8.796875 18.921875 8.15625 
Q 19.96875 7.515625 21.921875 7.515625 
Q 23.390625 7.515625 25.78125 7.859375 
z
" id="ArialMT-116"/>
       <path id="ArialMT-32"/>
       <path d="M 6.78125 -19.875 
L 6.78125 71.578125 
L 26.171875 71.578125 
L 26.171875 64.3125 
L 15.578125 64.3125 
L 15.578125 -12.59375 
L 26.171875 -12.59375 
L 26.171875 -19.875 
z
" id="ArialMT-91"/>
       <path d="M 6.59375 -19.875 
L 6.59375 51.859375 
L 14.59375 51.859375 
L 14.59375 45.125 
Q 17.4375 49.078125 21 51.046875 
Q 24.5625 53.03125 29.640625 53.03125 
Q 36.28125 53.03125 41.359375 49.609375 
Q 46.4375 46.1875 49.015625 39.953125 
Q 51.609375 33.734375 51.609375 26.3125 
Q 51.609375 18.359375 48.75 11.984375 
Q 45.90625 5.609375 40.453125 2.21875 
Q 35.015625 -1.171875 29 -1.171875 
Q 24.609375 -1.171875 21.109375 0.6875 
Q 17.625 2.546875 15.375 5.375 
L 15.375 -19.875 
z
M 14.546875 25.640625 
Q 14.546875 15.625 18.59375 10.84375 
Q 22.65625 6.0625 28.421875 6.0625 
Q 34.28125 6.0625 38.453125 11.015625 
Q 42.625 15.96875 42.625 26.375 
Q 42.625 36.28125 38.546875 41.203125 
Q 34.46875 46.140625 28.8125 46.140625 
Q 23.1875 46.140625 18.859375 40.890625 
Q 14.546875 35.640625 14.546875 25.640625 
z
" id="ArialMT-112"/>
       <path d="M 3.078125 15.484375 
L 11.765625 16.84375 
Q 12.5 11.625 15.84375 8.84375 
Q 19.1875 6.0625 25.203125 6.0625 
Q 31.25 6.0625 34.171875 8.515625 
Q 37.109375 10.984375 37.109375 14.3125 
Q 37.109375 17.28125 34.515625 19 
Q 32.71875 20.171875 25.53125 21.96875 
Q 15.875 24.421875 12.140625 26.203125 
Q 8.40625 27.984375 6.46875 31.125 
Q 4.546875 34.28125 4.546875 38.09375 
Q 4.546875 41.546875 6.125 44.5 
Q 7.71875 47.46875 10.453125 49.421875 
Q 12.5 50.921875 16.03125 51.96875 
Q 19.578125 53.03125 23.640625 53.03125 
Q 29.734375 53.03125 34.34375 51.265625 
Q 38.96875 49.515625 41.15625 46.5 
Q 43.359375 43.5 44.1875 38.484375 
L 35.59375 37.3125 
Q 35.015625 41.3125 32.203125 43.546875 
Q 29.390625 45.796875 24.265625 45.796875 
Q 18.21875 45.796875 15.625 43.796875 
Q 13.03125 41.796875 13.03125 39.109375 
Q 13.03125 37.40625 14.109375 36.03125 
Q 15.1875 34.625 17.484375 33.6875 
Q 18.796875 33.203125 25.25 31.453125 
Q 34.578125 28.953125 38.25 27.359375 
Q 41.9375 25.78125 44.03125 22.75 
Q 46.140625 19.734375 46.140625 15.234375 
Q 46.140625 10.84375 43.578125 6.953125 
Q 41.015625 3.078125 36.171875 0.953125 
Q 31.34375 -1.171875 25.25 -1.171875 
Q 15.140625 -1.171875 9.84375 3.03125 
Q 4.546875 7.234375 3.078125 15.484375 
z
" id="ArialMT-115"/>
       <path d="M 21.296875 -19.875 
L 1.90625 -19.875 
L 1.90625 -12.59375 
L 12.5 -12.59375 
L 12.5 64.3125 
L 1.90625 64.3125 
L 1.90625 71.578125 
L 21.296875 71.578125 
z
" id="ArialMT-93"/>
      </defs>
      <use xlink:href="#ArialMT-116"/>
      <use x="27.783203" xlink:href="#ArialMT-32"/>
      <use x="55.566406" xlink:href="#ArialMT-91"/>
      <use x="83.349609" xlink:href="#ArialMT-112"/>
      <use x="138.964844" xlink:href="#ArialMT-115"/>
      <use x="188.964844" xlink:href="#ArialMT-93"/>
     </g>
    </g>
   </g>
   <g id="matplotlib.axis_2">
    <g id="ytick_1">
     <g id="line2d_7">
      <path clip-path="url(#p321bab1866)" d="M 90 340.062478 
L 648 340.062478 
" style="fill:none;stroke:#cccccc;stroke-linecap:round;stroke-width:0.8;"/>
     </g>
     <g id="text_8">
      <!-- 0.00 -->
      <g style="fill:#262626;" transform="translate(64.574375 343.211916)scale(0.088 -0.088)">
       <use xlink:href="#ArialMT-48"/>
       <use x="55.615234" xlink:href="#ArialMT-46"/>
       <use x="83.398438" xlink:href="#ArialMT-48"/>
       <use x="139.013672" xlink:href="#ArialMT-48"/>
      </g>
     </g>
    </g>
    <g id="ytick_2">
     <g id="line2d_8">
      <path clip-path="url(#p321bab1866)" d="M 90 300.504136 
L 648 300.504136 
" style="fill:none;stroke:#cccccc;stroke-linecap:round;stroke-width:0.8;"/>
     </g>
     <g id="text_9">
      <!-- 0.25 -->
      <g style="fill:#262626;" transform="translate(64.574375 303.653573)scale(0.088 -0.088)">
       <use xlink:href="#ArialMT-48"/>
       <use x="55.615234" xlink:href="#ArialMT-46"/>
       <use x="83.398438" xlink:href="#ArialMT-50"/>
       <use x="139.013672" xlink:href="#ArialMT-53"/>
      </g>
     </g>
    </g>
    <g id="ytick_3">
     <g id="line2d_9">
      <path clip-path="url(#p321bab1866)" d="M 90 260.945794 
L 648 260.945794 
" style="fill:none;stroke:#cccccc;stroke-linecap:round;stroke-width:0.8;"/>
     </g>
     <g id="text_10">
      <!-- 0.50 -->
      <g style="fill:#262626;" transform="translate(64.574375 264.095231)scale(0.088 -0.088)">
       <use xlink:href="#ArialMT-48"/>
       <use x="55.615234" xlink:href="#ArialMT-46"/>
       <use x="83.398438" xlink:href="#ArialMT-53"/>
       <use x="139.013672" xlink:href="#ArialMT-48"/>
      </g>
     </g>
    </g>
    <g id="ytick_4">
     <g id="line2d_10">
      <path clip-path="url(#p321bab1866)" d="M 90 221.387452 
L 648 221.387452 
" style="fill:none;stroke:#cccccc;stroke-linecap:round;stroke-width:0.8;"/>
     </g>
     <g id="text_11">
      <!-- 0.75 -->
      <g style="fill:#262626;" transform="translate(64.574375 224.536889)scale(0.088 -0.088)">
       <defs>
        <path d="M 4.734375 62.203125 
L 4.734375 70.65625 
L 51.078125 70.65625 
L 51.078125 63.8125 
Q 44.234375 56.546875 37.515625 44.484375 
Q 30.8125 32.421875 27.15625 19.671875 
Q 24.515625 10.6875 23.78125 0 
L 14.75 0 
Q 14.890625 8.453125 18.0625 20.40625 
Q 21.234375 32.375 27.171875 43.484375 
Q 33.109375 54.59375 39.796875 62.203125 
z
" id="ArialMT-55"/>
       </defs>
       <use xlink:href="#ArialMT-48"/>
       <use x="55.615234" xlink:href="#ArialMT-46"/>
       <use x="83.398438" xlink:href="#ArialMT-55"/>
       <use x="139.013672" xlink:href="#ArialMT-53"/>
      </g>
     </g>
    </g>
    <g id="ytick_5">
     <g id="line2d_11">
      <path clip-path="url(#p321bab1866)" d="M 90 181.829109 
L 648 181.829109 
" style="fill:none;stroke:#cccccc;stroke-linecap:round;stroke-width:0.8;"/>
     </g>
     <g id="text_12">
      <!-- 1.00 -->
      <g style="fill:#262626;" transform="translate(64.574375 184.978547)scale(0.088 -0.088)">
       <defs>
        <path d="M 37.25 0 
L 28.46875 0 
L 28.46875 56 
Q 25.296875 52.984375 20.140625 49.953125 
Q 14.984375 46.921875 10.890625 45.40625 
L 10.890625 53.90625 
Q 18.265625 57.375 23.78125 62.296875 
Q 29.296875 67.234375 31.59375 71.875 
L 37.25 71.875 
z
" id="ArialMT-49"/>
       </defs>
       <use xlink:href="#ArialMT-49"/>
       <use x="55.615234" xlink:href="#ArialMT-46"/>
       <use x="83.398438" xlink:href="#ArialMT-48"/>
       <use x="139.013672" xlink:href="#ArialMT-48"/>
      </g>
     </g>
    </g>
    <g id="ytick_6">
     <g id="line2d_12">
      <path clip-path="url(#p321bab1866)" d="M 90 142.270767 
L 648 142.270767 
" style="fill:none;stroke:#cccccc;stroke-linecap:round;stroke-width:0.8;"/>
     </g>
     <g id="text_13">
      <!-- 1.25 -->
      <g style="fill:#262626;" transform="translate(64.574375 145.420205)scale(0.088 -0.088)">
       <use xlink:href="#ArialMT-49"/>
       <use x="55.615234" xlink:href="#ArialMT-46"/>
       <use x="83.398438" xlink:href="#ArialMT-50"/>
       <use x="139.013672" xlink:href="#ArialMT-53"/>
      </g>
     </g>
    </g>
    <g id="ytick_7">
     <g id="line2d_13">
      <path clip-path="url(#p321bab1866)" d="M 90 102.712425 
L 648 102.712425 
" style="fill:none;stroke:#cccccc;stroke-linecap:round;stroke-width:0.8;"/>
     </g>
     <g id="text_14">
      <!-- 1.50 -->
      <g style="fill:#262626;" transform="translate(64.574375 105.861863)scale(0.088 -0.088)">
       <use xlink:href="#ArialMT-49"/>
       <use x="55.615234" xlink:href="#ArialMT-46"/>
       <use x="83.398438" xlink:href="#ArialMT-53"/>
       <use x="139.013672" xlink:href="#ArialMT-48"/>
      </g>
     </g>
    </g>
    <g id="ytick_8">
     <g id="line2d_14">
      <path clip-path="url(#p321bab1866)" d="M 90 63.154083 
L 648 63.154083 
" style="fill:none;stroke:#cccccc;stroke-linecap:round;stroke-width:0.8;"/>
     </g>
     <g id="text_15">
      <!-- 1.75 -->
      <g style="fill:#262626;" transform="translate(64.574375 66.30352)scale(0.088 -0.088)">
       <use xlink:href="#ArialMT-49"/>
       <use x="55.615234" xlink:href="#ArialMT-46"/>
       <use x="83.398438" xlink:href="#ArialMT-55"/>
       <use x="139.013672" xlink:href="#ArialMT-53"/>
      </g>
     </g>
    </g>
    <g id="text_16">
     <!-- $\beta_{L,M}$ -->
     <g style="fill:#262626;" transform="translate(58.174375 224.616)rotate(-90)scale(0.096 -0.096)">
      <defs>
       <path d="M 13.625 3.375 
L 8.9375 -20.796875 
L -0.09375 -20.796875 
L 14.5 54.34375 
Q 18.84375 76.609375 39.65625 76.609375 
Q 60.75 76.609375 57.171875 57.8125 
Q 54.734375 44.4375 45.21875 39.546875 
Q 58.015625 35.15625 55.515625 22.125 
Q 51.125 -1.078125 27.484375 -1.03125 
Q 17.140625 -0.984375 13.625 3.375 
z
M 15.921875 15.09375 
Q 19.671875 6.59375 29.296875 6.640625 
Q 43.359375 6.640625 46.34375 21.96875 
Q 49.03125 35.75 26.171875 34.671875 
L 27.78125 42.96875 
Q 45.453125 42.671875 48.53125 58.59375 
Q 50.640625 69.34375 39.203125 69.28125 
Q 26.421875 69.28125 23.484375 54.046875 
z
" id="DejaVuSans-Oblique-946"/>
       <path d="M 16.796875 72.90625 
L 26.703125 72.90625 
L 14.203125 8.203125 
L 49.703125 8.203125 
L 48.09375 0 
L 2.6875 0 
z
" id="DejaVuSans-Oblique-76"/>
       <path d="M 11.71875 12.40625 
L 22.015625 12.40625 
L 22.015625 4 
L 14.015625 -11.625 
L 7.71875 -11.625 
L 11.71875 4 
z
" id="DejaVuSans-44"/>
       <path d="M 16.890625 72.90625 
L 31.6875 72.90625 
L 40.1875 23.78125 
L 68.40625 72.90625 
L 83.59375 72.90625 
L 69.390625 0 
L 59.8125 0 
L 72.21875 63.921875 
L 43.609375 14.015625 
L 33.984375 14.015625 
L 24.703125 64.109375 
L 12.3125 0 
L 2.6875 0 
z
" id="DejaVuSans-Oblique-77"/>
      </defs>
      <use transform="translate(0 0.390625)" xlink:href="#DejaVuSans-Oblique-946"/>
      <use transform="translate(63.818359 -16.015625)scale(0.7)" xlink:href="#DejaVuSans-Oblique-76"/>
      <use transform="translate(102.817383 -16.015625)scale(0.7)" xlink:href="#DejaVuSans-44"/>
      <use transform="translate(138.706055 -16.015625)scale(0.7)" xlink:href="#DejaVuSans-Oblique-77"/>
     </g>
    </g>
   </g>
   <g id="line2d_15">
    <path clip-path="url(#p321bab1866)" d="M 115.363636 66.665455 
L 157.636364 79.98544 
L 199.909091 90.084083 
L 242.181818 100.131804 
L 284.454545 110.236763 
L 326.727273 128.307453 
L 369 105.941699 
L 411.272727 107.290684 
L 453.545455 101.575719 
L 495.818182 78.71728 
L 538.090909 80.780903 
L 580.363636 88.449532 
L 622.636364 93.577846 
" style="fill:none;stroke:#001c7f;stroke-dasharray:4.44,1.92;stroke-dashoffset:0;stroke-width:1.2;"/>
    <defs>
     <path d="M -2.4 2.4 
L 2.4 -2.4 
M -2.4 -2.4 
L 2.4 2.4 
" id="mac0f9ff193" style="stroke:#001c7f;"/>
    </defs>
    <g clip-path="url(#p321bab1866)">
     <use style="fill:#001c7f;stroke:#001c7f;" x="115.363636" xlink:href="#mac0f9ff193" y="66.665455"/>
     <use style="fill:#001c7f;stroke:#001c7f;" x="157.636364" xlink:href="#mac0f9ff193" y="79.98544"/>
     <use style="fill:#001c7f;stroke:#001c7f;" x="199.909091" xlink:href="#mac0f9ff193" y="90.084083"/>
     <use style="fill:#001c7f;stroke:#001c7f;" x="242.181818" xlink:href="#mac0f9ff193" y="100.131804"/>
     <use style="fill:#001c7f;stroke:#001c7f;" x="284.454545" xlink:href="#mac0f9ff193" y="110.236763"/>
     <use style="fill:#001c7f;stroke:#001c7f;" x="326.727273" xlink:href="#mac0f9ff193" y="128.307453"/>
     <use style="fill:#001c7f;stroke:#001c7f;" x="369" xlink:href="#mac0f9ff193" y="105.941699"/>
     <use style="fill:#001c7f;stroke:#001c7f;" x="411.272727" xlink:href="#mac0f9ff193" y="107.290684"/>
     <use style="fill:#001c7f;stroke:#001c7f;" x="453.545455" xlink:href="#mac0f9ff193" y="101.575719"/>
     <use style="fill:#001c7f;stroke:#001c7f;" x="495.818182" xlink:href="#mac0f9ff193" y="78.71728"/>
     <use style="fill:#001c7f;stroke:#001c7f;" x="538.090909" xlink:href="#mac0f9ff193" y="80.780903"/>
     <use style="fill:#001c7f;stroke:#001c7f;" x="580.363636" xlink:href="#mac0f9ff193" y="88.449532"/>
     <use style="fill:#001c7f;stroke:#001c7f;" x="622.636364" xlink:href="#mac0f9ff193" y="93.577846"/>
    </g>
   </g>
   <g id="line2d_16">
    <path clip-path="url(#p321bab1866)" d="M 115.363636 186.193293 
L 157.636364 187.718598 
L 199.909091 187.794765 
L 242.181818 190.521251 
L 284.454545 168.873431 
L 326.727273 180.819552 
L 369 182.290214 
L 411.272727 188.936399 
L 453.545455 183.09221 
L 495.818182 190.335479 
L 538.090909 194.269321 
L 580.363636 195.399877 
L 622.636364 194.796349 
" style="fill:none;stroke:#b1400d;stroke-dasharray:4.44,1.92;stroke-dashoffset:0;stroke-width:1.2;"/>
    <defs>
     <path d="M -2.4 2.4 
L 2.4 -2.4 
M -2.4 -2.4 
L 2.4 2.4 
" id="mb1878f24be" style="stroke:#b1400d;"/>
    </defs>
    <g clip-path="url(#p321bab1866)">
     <use style="fill:#b1400d;stroke:#b1400d;" x="115.363636" xlink:href="#mb1878f24be" y="186.193293"/>
     <use style="fill:#b1400d;stroke:#b1400d;" x="157.636364" xlink:href="#mb1878f24be" y="187.718598"/>
     <use style="fill:#b1400d;stroke:#b1400d;" x="199.909091" xlink:href="#mb1878f24be" y="187.794765"/>
     <use style="fill:#b1400d;stroke:#b1400d;" x="242.181818" xlink:href="#mb1878f24be" y="190.521251"/>
     <use style="fill:#b1400d;stroke:#b1400d;" x="284.454545" xlink:href="#mb1878f24be" y="168.873431"/>
     <use style="fill:#b1400d;stroke:#b1400d;" x="326.727273" xlink:href="#mb1878f24be" y="180.819552"/>
     <use style="fill:#b1400d;stroke:#b1400d;" x="369" xlink:href="#mb1878f24be" y="182.290214"/>
     <use style="fill:#b1400d;stroke:#b1400d;" x="411.272727" xlink:href="#mb1878f24be" y="188.936399"/>
     <use style="fill:#b1400d;stroke:#b1400d;" x="453.545455" xlink:href="#mb1878f24be" y="183.09221"/>
     <use style="fill:#b1400d;stroke:#b1400d;" x="495.818182" xlink:href="#mb1878f24be" y="190.335479"/>
     <use style="fill:#b1400d;stroke:#b1400d;" x="538.090909" xlink:href="#mb1878f24be" y="194.269321"/>
     <use style="fill:#b1400d;stroke:#b1400d;" x="580.363636" xlink:href="#mb1878f24be" y="195.399877"/>
     <use style="fill:#b1400d;stroke:#b1400d;" x="622.636364" xlink:href="#mb1878f24be" y="194.796349"/>
    </g>
   </g>
   <g id="line2d_17">
    <path clip-path="url(#p321bab1866)" d="M 115.363636 336.800398 
L 157.636364 346.86748 
L 199.909091 338.6498 
L 242.181818 342.154295 
L 284.454545 338.685075 
L 326.727273 342.254443 
L 369 341.082493 
L 411.272727 339.137677 
L 453.545455 339.68089 
L 495.818182 342.755159 
L 538.090909 340.598886 
L 580.363636 340.712565 
L 622.636364 345.530593 
" style="fill:none;stroke:#12711c;stroke-dasharray:4.44,1.92;stroke-dashoffset:0;stroke-width:1.2;"/>
    <defs>
     <path d="M -2.4 2.4 
L 2.4 -2.4 
M -2.4 -2.4 
L 2.4 2.4 
" id="m6222ac6c71" style="stroke:#12711c;"/>
    </defs>
    <g clip-path="url(#p321bab1866)">
     <use style="fill:#12711c;stroke:#12711c;" x="115.363636" xlink:href="#m6222ac6c71" y="336.800398"/>
     <use style="fill:#12711c;stroke:#12711c;" x="157.636364" xlink:href="#m6222ac6c71" y="346.86748"/>
     <use style="fill:#12711c;stroke:#12711c;" x="199.909091" xlink:href="#m6222ac6c71" y="338.6498"/>
     <use style="fill:#12711c;stroke:#12711c;" x="242.181818" xlink:href="#m6222ac6c71" y="342.154295"/>
     <use style="fill:#12711c;stroke:#12711c;" x="284.454545" xlink:href="#m6222ac6c71" y="338.685075"/>
     <use style="fill:#12711c;stroke:#12711c;" x="326.727273" xlink:href="#m6222ac6c71" y="342.254443"/>
     <use style="fill:#12711c;stroke:#12711c;" x="369" xlink:href="#m6222ac6c71" y="341.082493"/>
     <use style="fill:#12711c;stroke:#12711c;" x="411.272727" xlink:href="#m6222ac6c71" y="339.137677"/>
     <use style="fill:#12711c;stroke:#12711c;" x="453.545455" xlink:href="#m6222ac6c71" y="339.68089"/>
     <use style="fill:#12711c;stroke:#12711c;" x="495.818182" xlink:href="#m6222ac6c71" y="342.755159"/>
     <use style="fill:#12711c;stroke:#12711c;" x="538.090909" xlink:href="#m6222ac6c71" y="340.598886"/>
     <use style="fill:#12711c;stroke:#12711c;" x="580.363636" xlink:href="#m6222ac6c71" y="340.712565"/>
     <use style="fill:#12711c;stroke:#12711c;" x="622.636364" xlink:href="#m6222ac6c71" y="345.530593"/>
    </g>
   </g>
   <g id="line2d_18">
    <path clip-path="url(#p321bab1866)" d="M 115.363636 359.344013 
L 157.636364 363.174545 
L 199.909091 350.644621 
L 242.181818 340.004521 
L 284.454545 328.156498 
L 326.727273 327.036004 
L 369 325.892346 
L 411.272727 334.09557 
L 453.545455 343.947354 
L 495.818182 357.171404 
L 538.090909 357.714785 
L 580.363636 357.934684 
L 622.636364 354.980743 
" style="fill:none;stroke:#8c0800;stroke-dasharray:4.44,1.92;stroke-dashoffset:0;stroke-width:1.2;"/>
    <defs>
     <path d="M -2.4 2.4 
L 2.4 -2.4 
M -2.4 -2.4 
L 2.4 2.4 
" id="m2b6b6028e7" style="stroke:#8c0800;"/>
    </defs>
    <g clip-path="url(#p321bab1866)">
     <use style="fill:#8c0800;stroke:#8c0800;" x="115.363636" xlink:href="#m2b6b6028e7" y="359.344013"/>
     <use style="fill:#8c0800;stroke:#8c0800;" x="157.636364" xlink:href="#m2b6b6028e7" y="363.174545"/>
     <use style="fill:#8c0800;stroke:#8c0800;" x="199.909091" xlink:href="#m2b6b6028e7" y="350.644621"/>
     <use style="fill:#8c0800;stroke:#8c0800;" x="242.181818" xlink:href="#m2b6b6028e7" y="340.004521"/>
     <use style="fill:#8c0800;stroke:#8c0800;" x="284.454545" xlink:href="#m2b6b6028e7" y="328.156498"/>
     <use style="fill:#8c0800;stroke:#8c0800;" x="326.727273" xlink:href="#m2b6b6028e7" y="327.036004"/>
     <use style="fill:#8c0800;stroke:#8c0800;" x="369" xlink:href="#m2b6b6028e7" y="325.892346"/>
     <use style="fill:#8c0800;stroke:#8c0800;" x="411.272727" xlink:href="#m2b6b6028e7" y="334.09557"/>
     <use style="fill:#8c0800;stroke:#8c0800;" x="453.545455" xlink:href="#m2b6b6028e7" y="343.947354"/>
     <use style="fill:#8c0800;stroke:#8c0800;" x="495.818182" xlink:href="#m2b6b6028e7" y="357.171404"/>
     <use style="fill:#8c0800;stroke:#8c0800;" x="538.090909" xlink:href="#m2b6b6028e7" y="357.714785"/>
     <use style="fill:#8c0800;stroke:#8c0800;" x="580.363636" xlink:href="#m2b6b6028e7" y="357.934684"/>
     <use style="fill:#8c0800;stroke:#8c0800;" x="622.636364" xlink:href="#m2b6b6028e7" y="354.980743"/>
    </g>
   </g>
   <g id="line2d_19">
    <path clip-path="url(#p321bab1866)" d="M 115.363636 336.987425 
L 157.636364 339.971985 
L 199.909091 336.827789 
L 242.181818 340.987861 
L 284.454545 340.045555 
L 326.727273 338.021816 
L 369 338.503642 
L 411.272727 339.216527 
L 453.545455 340.42032 
L 495.818182 339.86668 
L 538.090909 336.345227 
L 580.363636 337.963764 
L 622.636364 338.782394 
" style="fill:none;stroke:#591e71;stroke-dasharray:4.44,1.92;stroke-dashoffset:0;stroke-width:1.2;"/>
    <defs>
     <path d="M -2.4 2.4 
L 2.4 -2.4 
M -2.4 -2.4 
L 2.4 2.4 
" id="mef72c53399" style="stroke:#591e71;"/>
    </defs>
    <g clip-path="url(#p321bab1866)">
     <use style="fill:#591e71;stroke:#591e71;" x="115.363636" xlink:href="#mef72c53399" y="336.987425"/>
     <use style="fill:#591e71;stroke:#591e71;" x="157.636364" xlink:href="#mef72c53399" y="339.971985"/>
     <use style="fill:#591e71;stroke:#591e71;" x="199.909091" xlink:href="#mef72c53399" y="336.827789"/>
     <use style="fill:#591e71;stroke:#591e71;" x="242.181818" xlink:href="#mef72c53399" y="340.987861"/>
     <use style="fill:#591e71;stroke:#591e71;" x="284.454545" xlink:href="#mef72c53399" y="340.045555"/>
     <use style="fill:#591e71;stroke:#591e71;" x="326.727273" xlink:href="#mef72c53399" y="338.021816"/>
     <use style="fill:#591e71;stroke:#591e71;" x="369" xlink:href="#mef72c53399" y="338.503642"/>
     <use style="fill:#591e71;stroke:#591e71;" x="411.272727" xlink:href="#mef72c53399" y="339.216527"/>
     <use style="fill:#591e71;stroke:#591e71;" x="453.545455" xlink:href="#mef72c53399" y="340.42032"/>
     <use style="fill:#591e71;stroke:#591e71;" x="495.818182" xlink:href="#mef72c53399" y="339.86668"/>
     <use style="fill:#591e71;stroke:#591e71;" x="538.090909" xlink:href="#mef72c53399" y="336.345227"/>
     <use style="fill:#591e71;stroke:#591e71;" x="580.363636" xlink:href="#mef72c53399" y="337.963764"/>
     <use style="fill:#591e71;stroke:#591e71;" x="622.636364" xlink:href="#mef72c53399" y="338.782394"/>
    </g>
   </g>
   <g id="line2d_20">
    <path clip-path="url(#p321bab1866)" d="M 115.363636 75.998974 
L 157.636364 77.491536 
L 199.909091 85.592215 
L 242.181818 99.031404 
L 284.454545 112.784847 
L 326.727273 120.719345 
L 369 119.370844 
L 411.272727 110.039678 
L 453.545455 97.70574 
L 495.818182 87.793827 
L 538.090909 83.260876 
L 580.363636 83.779885 
L 622.636364 86.949545 
" style="fill:none;stroke:#001c7f;stroke-linecap:round;stroke-width:1.2;"/>
   </g>
   <g id="line2d_21">
    <path clip-path="url(#p321bab1866)" d="M 115.363636 193.672128 
L 157.636364 193.188798 
L 199.909091 190.567832 
L 242.181818 186.200839 
L 284.454545 181.664295 
L 326.727273 179.012517 
L 369 179.470656 
L 411.272727 182.561874 
L 453.545455 186.581736 
L 495.818182 189.785283 
L 538.090909 191.253763 
L 580.363636 191.096274 
L 622.636364 190.079548 
" style="fill:none;stroke:#b1400d;stroke-linecap:round;stroke-width:1.2;"/>
   </g>
   <g id="line2d_22">
    <path clip-path="url(#p321bab1866)" d="M 115.363636 363.105449 
L 157.636364 361.56389 
L 199.909091 353.111739 
L 242.181818 339.984434 
L 284.454545 329.721366 
L 326.727273 325.371868 
L 369 325.76702 
L 411.272727 332.108735 
L 453.545455 343.608263 
L 495.818182 354.155432 
L 538.090909 358.81961 
L 580.363636 357.781681 
L 622.636364 354.039845 
" style="fill:none;stroke:#12711c;stroke-linecap:round;stroke-width:1.2;"/>
   </g>
   <g id="line2d_23">
    <path clip-path="url(#p321bab1866)" d="M 115.363636 338.629391 
L 157.636364 338.816612 
L 199.909091 339.865008 
L 242.181818 340.963875 
L 284.454545 339.882384 
L 326.727273 338.24232 
L 369 338.751174 
L 411.272727 339.908133 
L 453.545455 339.257812 
L 495.818182 337.772486 
L 538.090909 337.201773 
L 580.363636 337.621999 
L 622.636364 338.362385 
" style="fill:none;stroke:#8c0800;stroke-linecap:round;stroke-width:1.2;"/>
   </g>
   <g id="patch_3">
    <path d="M 90 378 
L 90 51.84 
" style="fill:none;stroke:#cccccc;stroke-linecap:square;stroke-linejoin:miter;"/>
   </g>
   <g id="patch_4">
    <path d="M 648 378 
L 648 51.84 
" style="fill:none;stroke:#cccccc;stroke-linecap:square;stroke-linejoin:miter;"/>
   </g>
   <g id="patch_5">
    <path d="M 90 378 
L 648 378 
" style="fill:none;stroke:#cccccc;stroke-linecap:square;stroke-linejoin:miter;"/>
   </g>
   <g id="patch_6">
    <path d="M 90 51.84 
L 648 51.84 
" style="fill:none;stroke:#cccccc;stroke-linecap:square;stroke-linejoin:miter;"/>
   </g>
   <g id="legend_1">
    <g id="patch_7">
     <path d="M 96.16 122.922 
L 144.857 122.922 
Q 146.617 122.922 146.617 121.162 
L 146.617 58 
Q 146.617 56.24 144.857 56.24 
L 96.16 56.24 
Q 94.4 56.24 94.4 58 
L 94.4 121.162 
Q 94.4 122.922 96.16 122.922 
z
" style="fill:#ffffff;opacity:0.8;stroke:#cccccc;stroke-linejoin:miter;stroke-width:0.8;"/>
    </g>
    <g id="text_17">
     <!-- (L,M) -->
     <g style="fill:#262626;" transform="translate(109.311 66.7485)scale(0.096 -0.096)">
      <defs>
       <path d="M 23.390625 -21.046875 
Q 16.109375 -11.859375 11.078125 0.4375 
Q 6.0625 12.75 6.0625 25.921875 
Q 6.0625 37.546875 9.8125 48.1875 
Q 14.203125 60.546875 23.390625 72.796875 
L 29.6875 72.796875 
Q 23.78125 62.640625 21.875 58.296875 
Q 18.890625 51.5625 17.1875 44.234375 
Q 15.09375 35.109375 15.09375 25.875 
Q 15.09375 2.390625 29.6875 -21.046875 
z
" id="ArialMT-40"/>
       <path d="M 7.328125 0 
L 7.328125 71.578125 
L 16.796875 71.578125 
L 16.796875 8.453125 
L 52.046875 8.453125 
L 52.046875 0 
z
" id="ArialMT-76"/>
       <path d="M 8.890625 0 
L 8.890625 10.015625 
L 18.890625 10.015625 
L 18.890625 0 
Q 18.890625 -5.515625 16.9375 -8.90625 
Q 14.984375 -12.3125 10.75 -14.15625 
L 8.296875 -10.40625 
Q 11.078125 -9.1875 12.390625 -6.8125 
Q 13.71875 -4.4375 13.875 0 
z
" id="ArialMT-44"/>
       <path d="M 7.421875 0 
L 7.421875 71.578125 
L 21.6875 71.578125 
L 38.625 20.90625 
Q 40.96875 13.8125 42.046875 10.296875 
Q 43.265625 14.203125 45.84375 21.78125 
L 62.984375 71.578125 
L 75.734375 71.578125 
L 75.734375 0 
L 66.609375 0 
L 66.609375 59.90625 
L 45.796875 0 
L 37.25 0 
L 16.546875 60.9375 
L 16.546875 0 
z
" id="ArialMT-77"/>
       <path d="M 12.359375 -21.046875 
L 6.0625 -21.046875 
Q 20.65625 2.390625 20.65625 25.875 
Q 20.65625 35.0625 18.5625 44.09375 
Q 16.890625 51.421875 13.921875 58.15625 
Q 12.015625 62.546875 6.0625 72.796875 
L 12.359375 72.796875 
Q 21.53125 60.546875 25.921875 48.1875 
Q 29.6875 37.546875 29.6875 25.921875 
Q 29.6875 12.75 24.625 0.4375 
Q 19.578125 -11.859375 12.359375 -21.046875 
z
" id="ArialMT-41"/>
      </defs>
      <use xlink:href="#ArialMT-40"/>
      <use x="33.300781" xlink:href="#ArialMT-76"/>
      <use x="88.916016" xlink:href="#ArialMT-44"/>
      <use x="116.699219" xlink:href="#ArialMT-77"/>
      <use x="200" xlink:href="#ArialMT-41"/>
     </g>
    </g>
    <g id="line2d_24">
     <path d="M 97.92 76.495125 
L 115.52 76.495125 
" style="fill:none;stroke:#001c7f;stroke-dasharray:4.44,1.92;stroke-dashoffset:0;stroke-width:1.2;"/>
    </g>
    <g id="line2d_25">
     <g>
      <use style="fill:#001c7f;stroke:#001c7f;" x="106.72" xlink:href="#mac0f9ff193" y="76.495125"/>
     </g>
    </g>
    <g id="text_18">
     <!-- (0, 0) -->
     <g style="fill:#262626;" transform="translate(122.56 79.575125)scale(0.088 -0.088)">
      <use xlink:href="#ArialMT-40"/>
      <use x="33.300781" xlink:href="#ArialMT-48"/>
      <use x="88.916016" xlink:href="#ArialMT-44"/>
      <use x="116.699219" xlink:href="#ArialMT-32"/>
      <use x="144.482422" xlink:href="#ArialMT-48"/>
      <use x="200.097656" xlink:href="#ArialMT-41"/>
     </g>
    </g>
    <g id="line2d_26">
     <path d="M 97.92 89.153375 
L 115.52 89.153375 
" style="fill:none;stroke:#b1400d;stroke-dasharray:4.44,1.92;stroke-dashoffset:0;stroke-width:1.2;"/>
    </g>
    <g id="line2d_27">
     <g>
      <use style="fill:#b1400d;stroke:#b1400d;" x="106.72" xlink:href="#mb1878f24be" y="89.153375"/>
     </g>
    </g>
    <g id="text_19">
     <!-- (2, 0) -->
     <g style="fill:#262626;" transform="translate(122.56 92.233375)scale(0.088 -0.088)">
      <use xlink:href="#ArialMT-40"/>
      <use x="33.300781" xlink:href="#ArialMT-50"/>
      <use x="88.916016" xlink:href="#ArialMT-44"/>
      <use x="116.699219" xlink:href="#ArialMT-32"/>
      <use x="144.482422" xlink:href="#ArialMT-48"/>
      <use x="200.097656" xlink:href="#ArialMT-41"/>
     </g>
    </g>
    <g id="line2d_28">
     <path d="M 97.92 101.811625 
L 115.52 101.811625 
" style="fill:none;stroke:#12711c;stroke-dasharray:4.44,1.92;stroke-dashoffset:0;stroke-width:1.2;"/>
    </g>
    <g id="line2d_29">
     <g>
      <use style="fill:#12711c;stroke:#12711c;" x="106.72" xlink:href="#m6222ac6c71" y="101.811625"/>
     </g>
    </g>
    <g id="text_20">
     <!-- (4, 0) -->
     <g style="fill:#262626;" transform="translate(122.56 104.891625)scale(0.088 -0.088)">
      <use xlink:href="#ArialMT-40"/>
      <use x="33.300781" xlink:href="#ArialMT-52"/>
      <use x="88.916016" xlink:href="#ArialMT-44"/>
      <use x="116.699219" xlink:href="#ArialMT-32"/>
      <use x="144.482422" xlink:href="#ArialMT-48"/>
      <use x="200.097656" xlink:href="#ArialMT-41"/>
     </g>
    </g>
    <g id="line2d_30">
     <path d="M 97.92 114.469875 
L 115.52 114.469875 
" style="fill:none;stroke:#8c0800;stroke-dasharray:4.44,1.92;stroke-dashoffset:0;stroke-width:1.2;"/>
    </g>
    <g id="line2d_31">
     <g>
      <use style="fill:#8c0800;stroke:#8c0800;" x="106.72" xlink:href="#m2b6b6028e7" y="114.469875"/>
     </g>
    </g>
    <g id="text_21">
     <!-- (6, 0) -->
     <g style="fill:#262626;" transform="translate(122.56 117.549875)scale(0.088 -0.088)">
      <use xlink:href="#ArialMT-40"/>
      <use x="33.300781" xlink:href="#ArialMT-54"/>
      <use x="88.916016" xlink:href="#ArialMT-44"/>
      <use x="116.699219" xlink:href="#ArialMT-32"/>
      <use x="144.482422" xlink:href="#ArialMT-48"/>
      <use x="200.097656" xlink:href="#ArialMT-41"/>
     </g>
    </g>
   </g>
  </g>
 </g>
 <defs>
  <clipPath id="p321bab1866">
   <rect height="326.16" width="558" x="90" y="51.84"/>
  </clipPath>
 </defs>
</svg>
